<svg width="22" height="28" viewBox="0 0 22 28" fill="none" xmlns="http://www.w3.org/2000/svg">
<path d="M19 0H3C2.20435 0 1.44129 0.316071 0.87868 0.87868C0.316071 1.44129 0 2.20435 0 3V25C0 25.7956 0.316071 26.5587 0.87868 27.1213C1.44129 27.6839 2.20435 28 3 28H19C19.7956 28 20.5587 27.6839 21.1213 27.1213C21.6839 26.5587 22 25.7956 22 25V3C22 2.20435 21.6839 1.44129 21.1213 0.87868C20.5587 0.316071 19.7956 0 19 0ZM3 2H19C19.2652 2 19.5196 2.10536 19.7071 2.29289C19.8946 2.48043 20 2.73478 20 3V10H2V3C2 2.73478 2.10536 2.48043 2.29289 2.29289C2.48043 2.10536 2.73478 2 3 2ZM20 25C20 25.2652 19.8946 25.5196 19.7071 25.7071C19.5196 25.8946 19.2652 26 19 26H3C2.73478 26 2.48043 25.8946 2.29289 25.7071C2.10536 25.5196 2 25.2652 2 25V12H20V25Z" fill="#979797"/>
<path d="M17 24C17.2652 24 17.5196 23.8946 17.7071 23.7071C17.8946 23.5196 18 23.2652 18 23V15C18 14.7348 17.8946 14.4804 17.7071 14.2929C17.5196 14.1054 17.2652 14 17 14C16.7348 14 16.4804 14.1054 16.2929 14.2929C16.1054 14.4804 16 14.7348 16 15V23C16 23.2652 16.1054 23.5196 16.2929 23.7071C16.4804 23.8946 16.7348 24 17 24Z" fill="#979797"/>
<path d="M5 16C5.13068 15.9984 5.25978 15.9712 5.38 15.92C5.50119 15.8693 5.6128 15.7983 5.71 15.71C5.80268 15.6165 5.87601 15.5057 5.92577 15.3839C5.97554 15.262 6.00076 15.1316 6 15C5.99632 14.7352 5.89273 14.4816 5.71 14.29L5.56 14.17C5.50426 14.1321 5.44372 14.1018 5.38 14.08C5.32045 14.0495 5.25623 14.0292 5.19 14.02C5.06171 13.9901 4.92828 13.9901 4.8 14.02L4.62 14.08C4.55628 14.1018 4.49574 14.1321 4.44 14.17L4.29 14.29C4.10727 14.4816 4.00368 14.7352 4 15C4 15.2652 4.10536 15.5195 4.29289 15.7071C4.48043 15.8946 4.73478 16 5 16Z" fill="#979797"/>
<path d="M8.28999 15.71C8.38295 15.8037 8.49355 15.8781 8.61541 15.9288C8.73727 15.9796 8.86798 16.0058 8.99999 16.0058C9.132 16.0058 9.26271 15.9796 9.38457 15.9288C9.50642 15.8781 9.61703 15.8037 9.70999 15.71C9.79832 15.6128 9.86935 15.5011 9.91999 15.38C9.97123 15.2597 9.99841 15.1306 9.99999 15C9.99631 14.7352 9.89272 14.4816 9.70999 14.29C9.6608 14.2447 9.6072 14.2045 9.54999 14.17C9.49894 14.1304 9.44142 14.0999 9.37999 14.08C9.32044 14.0495 9.25622 14.0292 9.18999 14.02C9.0617 13.9901 8.92827 13.9901 8.79999 14.02L8.61999 14.08C8.55626 14.1018 8.49573 14.1321 8.43999 14.17C8.3876 14.2069 8.33751 14.247 8.28999 14.29C8.19739 14.3838 8.1258 14.4963 8.07999 14.62C8.02708 14.7397 7.99976 14.8691 7.99976 15C7.99976 15.1308 8.02708 15.2603 8.07999 15.38C8.13063 15.5011 8.20166 15.6128 8.28999 15.71Z" fill="#979797"/>
<path d="M13 16.0001C13.2652 16.0001 13.5196 15.8948 13.7071 15.7072C13.8946 15.5197 14 15.2653 14 15.0001C13.9963 14.7353 13.8927 14.4818 13.71 14.2901C13.6608 14.2449 13.6072 14.2047 13.55 14.1701C13.4989 14.1305 13.4414 14.1001 13.38 14.0801C13.3205 14.0497 13.2562 14.0294 13.19 14.0201C12.9984 13.9796 12.7989 14.0006 12.62 14.0801C12.4972 14.1277 12.3851 14.1991 12.29 14.2901C12.1073 14.4818 12.0037 14.7353 12 15.0001C12 15.2653 12.1054 15.5197 12.2929 15.7072C12.4804 15.8948 12.7348 16.0001 13 16.0001Z" fill="#979797"/>
<path d="M5 20C5.13068 19.9984 5.25978 19.9712 5.38 19.92C5.50119 19.8693 5.6128 19.7983 5.71 19.71C5.80268 19.6165 5.87601 19.5057 5.92577 19.3839C5.97554 19.262 6.00076 19.1316 6 19C5.99632 18.7352 5.89273 18.4816 5.71 18.29C5.66248 18.247 5.61239 18.2069 5.56 18.17C5.50426 18.1321 5.44372 18.1018 5.38 18.08C5.32045 18.0495 5.25623 18.0292 5.19 18.02C5.06171 17.9901 4.92828 17.9901 4.8 18.02L4.62 18.08C4.55628 18.1018 4.49574 18.1321 4.44 18.17C4.38761 18.2069 4.33752 18.247 4.29 18.29C4.10727 18.4816 4.00368 18.7352 4 19C4 19.2652 4.10536 19.5195 4.29289 19.7071C4.48043 19.8946 4.73478 20 5 20Z" fill="#979797"/>
<path d="M8.28999 19.71C8.38295 19.8037 8.49355 19.8781 8.61541 19.9288C8.73727 19.9796 8.86798 20.0058 8.99999 20.0058C9.132 20.0058 9.26271 19.9796 9.38457 19.9288C9.50642 19.8781 9.61703 19.8037 9.70999 19.71C9.79832 19.6128 9.86935 19.5011 9.91999 19.38C9.97289 19.2603 10.0002 19.1308 10.0002 19C10.0002 18.8691 9.97289 18.7397 9.91999 18.62C9.87239 18.4972 9.80103 18.3851 9.70999 18.29C9.6608 18.2447 9.6072 18.2045 9.54999 18.17C9.49894 18.1304 9.44142 18.0999 9.37999 18.08C9.32044 18.0495 9.25622 18.0292 9.18999 18.02C9.02933 17.9878 8.86324 17.9956 8.7063 18.0427C8.54937 18.0897 8.40641 18.1747 8.28999 18.29C8.19895 18.3851 8.12758 18.4972 8.07999 18.62C8.02708 18.7397 7.99976 18.8691 7.99976 19C7.99976 19.1308 8.02708 19.2603 8.07999 19.38C8.13063 19.5011 8.20166 19.6128 8.28999 19.71Z" fill="#979797"/>
<path d="M12.29 19.7101C12.4299 19.8511 12.6086 19.9473 12.8034 19.9864C12.9981 20.0255 13.2001 20.0057 13.3835 19.9295C13.567 19.8533 13.7236 19.7242 13.8334 19.5587C13.9432 19.3932 14.0012 19.1987 14 19.0001C13.9964 18.7353 13.8928 18.4818 13.71 18.2901C13.6608 18.2449 13.6072 18.2047 13.55 18.1701C13.499 18.1305 13.4415 18.1001 13.38 18.0801C13.3205 18.0497 13.2563 18.0294 13.19 18.0201C12.9985 17.9796 12.799 18.0006 12.62 18.0801C12.4959 18.125 12.3832 18.1967 12.2899 18.29C12.1966 18.3833 12.1249 18.496 12.08 18.6201C12.0241 18.7388 11.9967 18.8689 12 19.0001C11.9984 19.1301 12.0222 19.2592 12.07 19.3801C12.128 19.4996 12.202 19.6106 12.29 19.7101Z" fill="#979797"/>
<path d="M5 24C5.13068 23.9984 5.25978 23.9712 5.38 23.92C5.50119 23.8693 5.6128 23.7983 5.71 23.71C5.80268 23.6165 5.87601 23.5057 5.92577 23.3839C5.97554 23.262 6.00076 23.1316 6 23C5.99632 22.7352 5.89273 22.4816 5.71 22.29L5.56 22.17C5.50426 22.1321 5.44372 22.1018 5.38 22.08C5.32045 22.0495 5.25623 22.0292 5.19 22.02C5.06171 21.9901 4.92828 21.9901 4.8 22.02L4.62 22.08C4.55628 22.1018 4.49574 22.1321 4.44 22.17L4.29 22.29C4.10727 22.4816 4.00368 22.7352 4 23C4 23.2652 4.10536 23.5195 4.29289 23.7071C4.48043 23.8946 4.73478 24 5 24Z" fill="#979797"/>
<path d="M8.28999 23.71C8.38295 23.8037 8.49355 23.8781 8.61541 23.9288C8.73727 23.9796 8.86798 24.0058 8.99999 24.0058C9.132 24.0058 9.26271 23.9796 9.38457 23.9288C9.50642 23.8781 9.61703 23.8037 9.70999 23.71C9.79832 23.6128 9.86935 23.5011 9.91999 23.38C9.97289 23.2603 10.0002 23.1308 10.0002 23C10.0002 22.8691 9.97289 22.7397 9.91999 22.62C9.87239 22.4972 9.80103 22.3851 9.70999 22.29C9.6608 22.2447 9.6072 22.2045 9.54999 22.17C9.49894 22.1304 9.44142 22.0999 9.37999 22.08C9.32044 22.0495 9.25622 22.0292 9.18999 22.02C9.02933 21.9878 8.86324 21.9956 8.7063 22.0427C8.54937 22.0897 8.40641 22.1747 8.28999 22.29C8.19895 22.3851 8.12758 22.4972 8.07999 22.62C8.02708 22.7397 7.99976 22.8691 7.99976 23C7.99976 23.1308 8.02708 23.2603 8.07999 23.38C8.13063 23.5011 8.20166 23.6128 8.28999 23.71Z" fill="#979797"/>
<path d="M13 24.0001C13.2653 24.0001 13.5196 23.8948 13.7071 23.7072C13.8947 23.5197 14 23.2653 14 23.0001C13.9964 22.7353 13.8928 22.4818 13.71 22.2901C13.6608 22.2449 13.6072 22.2047 13.55 22.1701C13.499 22.1305 13.4415 22.1001 13.38 22.0801C13.3205 22.0497 13.2563 22.0294 13.19 22.0201C12.9985 21.9796 12.799 22.0006 12.62 22.0801C12.4959 22.125 12.3832 22.1967 12.2899 22.29C12.1966 22.3833 12.1249 22.496 12.08 22.6201C12.0241 22.7388 11.9967 22.8689 12 23.0001C12 23.2653 12.1054 23.5197 12.2929 23.7072C12.4805 23.8948 12.7348 24.0001 13 24.0001Z" fill="#979797"/>
</svg>
