<svg width="28" height="28" viewBox="0 0 28 28" fill="none" xmlns="http://www.w3.org/2000/svg">
<path d="M14 0C6.27667 0 0 6.27667 0 14C0 21.7233 6.27667 28 14 28C21.7233 28 28 21.7233 28 14C28 6.27667 21.7233 0 14 0ZM14 25.6667C7.56 25.6667 2.33333 20.44 2.33333 14C2.33333 7.56 7.56 2.33333 14 2.33333C20.44 2.33333 25.6667 7.56 25.6667 14C25.6667 20.44 20.44 25.6667 14 25.6667Z" fill="#979797"/>
<path d="M15.0031 5.95013C12.7631 5.39013 10.2665 6.81346 9.5898 9.00679C9.3798 9.63679 9.7298 10.2901 10.3365 10.4768C10.9431 10.6635 11.5965 10.3368 11.8065 9.70679C12.1331 8.68012 13.3931 7.95679 14.4665 8.21346C15.5165 8.47012 16.3098 9.70679 16.0998 10.7801C15.9131 11.8535 14.7698 12.7168 13.6731 12.5768C13.3465 12.5301 12.9965 12.6468 12.7631 12.8568C12.5065 13.0901 12.3665 13.3935 12.3665 13.7435L12.3431 17.3835C12.3431 18.0368 12.8565 18.5501 13.5098 18.5501C14.1631 18.5501 14.6765 18.0368 14.6765 17.3835L14.6998 14.8401C16.4965 14.4901 18.0831 13.0201 18.4098 11.1768C18.8298 8.91346 17.2665 6.51013 15.0031 5.95013Z" fill="#979797"/>
<path d="M13.5567 19.5764H13.5334C12.9034 19.5764 12.39 20.1131 12.3667 20.7431C12.3667 20.7664 12.3667 20.9764 12.3667 20.9997C12.3667 21.6297 12.88 22.0497 13.51 22.0731H13.5334C14.1634 22.0731 14.6767 21.4897 14.7 20.8597C14.7 20.8364 14.7 20.6964 14.7 20.6731C14.6767 20.0431 14.1867 19.5764 13.5567 19.5764Z" fill="#979797"/>
</svg>
