<svg width="28" height="30" viewBox="0 0 28 30" fill="none" xmlns="http://www.w3.org/2000/svg">
<path d="M26.1579 21.4598V8.54017C26.1569 8.35355 26.1067 8.1705 26.0124 8.00947C25.9181 7.84843 25.783 7.71511 25.6207 7.62296L14.09 1.13693C13.9346 1.04722 13.7584 1 13.579 1C13.3996 1 13.2233 1.04722 13.0679 1.13693L1.53723 7.62296C1.37495 7.71511 1.23983 7.84843 1.14551 8.00947C1.05119 8.1705 1.001 8.35355 1 8.54017V21.4598C1.001 21.6464 1.05119 21.8295 1.14551 21.9905C1.23983 22.1516 1.37495 22.2849 1.53723 22.377L13.0679 28.8631C13.2233 28.9528 13.3996 29 13.579 29C13.7584 29 13.9346 28.9528 14.09 28.8631L25.6207 22.377C25.783 22.2849 25.9181 22.1516 26.0124 21.9905C26.1067 21.8295 26.1569 21.6464 26.1579 21.4598Z" stroke="#979797" stroke-width="2" stroke-linecap="round" stroke-linejoin="round"/>
<path d="M19.9994 18.2105V11.3969L7.28943 4.38672" stroke="#979797" stroke-width="2" stroke-linecap="round" stroke-linejoin="round"/>
<path d="M26.0138 8.00317L13.6969 15.0002L1.14417 8.00317" stroke="#979797" stroke-width="2" stroke-linecap="round" stroke-linejoin="round"/>
<path d="M13.6969 15L13.579 28.9941" stroke="#979797" stroke-width="2" stroke-linecap="round" stroke-linejoin="round"/>
</svg>
